<?xml version="1.0" encoding="UTF-8" standalone="no"?>
<svg
   xmlns:dc="http://purl.org/dc/elements/1.1/"
   xmlns:cc="http://creativecommons.org/ns#"
   xmlns:rdf="http://www.w3.org/1999/02/22-rdf-syntax-ns#"
   xmlns:svg="http://www.w3.org/2000/svg"
   xmlns="http://www.w3.org/2000/svg"
   xmlns:sodipodi="http://sodipodi.sourceforge.net/DTD/sodipodi-0.dtd"
   xmlns:inkscape="http://www.inkscape.org/namespaces/inkscape"
   inkscape:export-ydpi="200.64"
   inkscape:export-xdpi="200.64"
   inkscape:export-filename="/Users/gzomer/Documents/Development/Projects/aws-hackathons/assets/logo.png"
   sodipodi:docname="logo.svg"
   inkscape:version="1.0beta2 (2b71d25, 2019-12-03)"
   id="svg8"
   version="1.1"
   viewBox="0 0 158.75 105.83334"
   height="400"
   width="600">
  <defs
     id="defs2">
	
	
</defs>
  <sodipodi:namedview
     inkscape:window-maximized="0"
     inkscape:window-y="23"
     inkscape:window-x="0"
     inkscape:window-height="855"
     inkscape:window-width="1440"
     units="px"
     showgrid="false"
     inkscape:document-rotation="0"
     inkscape:current-layer="layer1"
     inkscape:document-units="mm"
     inkscape:cy="413.52113"
     inkscape:cx="273.23944"
     inkscape:zoom="0.71"
     inkscape:pageshadow="2"
     inkscape:pageopacity="1"
     borderopacity="1.0"
     bordercolor="#666666"
     pagecolor="#ffffff"
     id="base" />
  <metadata
     id="metadata5">
    <rdf:RDF>
      <cc:Work
         rdf:about="">
        <dc:format>image/svg+xml</dc:format>
        <dc:type
           rdf:resource="http://purl.org/dc/dcmitype/StillImage" />
        <dc:title></dc:title>
      </cc:Work>
    </rdf:RDF>
  </metadata>
  <g
     id="layer1"
     inkscape:groupmode="layer"
     inkscape:label="Layer 1">
    <path
       inkscape:connector-curvature="0"
       class="st0"
       d="m 46.167416,30.047837 c -8.763857,0 -15.85115,7.163506 -15.85115,15.851156 0,8.68765 7.087293,15.851141 15.85115,15.851141 8.763858,0 15.851151,-7.163491 15.851151,-15.851141 0,-8.68765 -7.087293,-15.851156 -15.851151,-15.851156 z m -2.476741,31.511781 v -3.086395 c 0,-1.10502 -0.685867,-2.133813 -1.714668,-2.552952 -3.848477,-1.638463 -6.630049,-5.525043 -6.630049,-9.983187 0,-5.944181 4.839173,-10.821449 10.821458,-10.821449 5.982285,0 10.821459,4.915374 10.821459,10.821449 0,7.011096 -5.448833,13.603039 -13.2982,15.622534 z"
       id="path853"
       style="fill:#00caff;stroke-width:0.381037" />
    <path
       style="stroke-width:0.381037"
       id="path867"
       d="m 75.80192,37.392194 c 3.810372,0 5.715559,1.638461 5.715559,4.915383 v 11.735947 c 0,0.342933 -0.152416,0.495349 -0.495349,0.495349 h -0.685867 c -0.342934,0 -0.495348,-0.152416 -0.533452,-0.495349 l -0.152415,-1.447941 c -1.867083,1.524149 -3.848476,2.286224 -5.944182,2.286224 -1.524149,0 -2.743469,-0.419142 -3.58175,-1.295528 -0.91449,-0.914489 -1.295526,-1.981393 -1.295526,-3.505542 0,-1.600356 0.533451,-2.895884 1.638459,-3.810374 1.105009,-0.914489 2.629158,-1.371734 4.49624,-1.371734 0.685867,0 1.447942,0.07621 2.362432,0.190519 0.838281,0.152415 1.638459,0.342934 2.400534,0.533453 v -2.781573 c 0,-1.295526 -0.342933,-2.286224 -0.952592,-2.895883 -0.609661,-0.533453 -1.714668,-0.91449 -3.16261,-0.91449 -1.371734,0 -2.819677,0.19052 -4.343825,0.685868 -0.266726,0.07621 -0.419142,0.152414 -0.533453,0.190519 -0.152414,0.07621 -0.266726,0.07621 -0.342933,0.07621 -0.266726,0 -0.41914,-0.152414 -0.41914,-0.41914 v -0.533453 c 0,-0.342933 0.152414,-0.533452 0.41914,-0.685867 0.838283,-0.342933 1.714667,-0.533453 2.705365,-0.762076 0.838281,-0.114319 1.790875,-0.190518 2.705365,-0.190518 z m -0.495349,9.106792 c -3.086402,0 -4.610551,1.181216 -4.610551,3.581751 0,2.057601 1.105008,3.086402 3.238816,3.086402 0.838283,0 1.714668,-0.152416 2.705365,-0.495349 0.952593,-0.342934 1.943291,-0.838282 2.972091,-1.447941 v -4.153307 c -1.486045,-0.381037 -2.933987,-0.571556 -4.305721,-0.571556 z"
       class="st1"
       inkscape:connector-curvature="0" />
    <path
       style="stroke-width:0.381037"
       id="path869"
       d="m 85.861304,30.571626 c 0,-0.342933 0.152415,-0.495348 0.495348,-0.495348 h 0.91449 c 0.342933,0 0.495348,0.152415 0.495348,0.495348 v 21.109468 c 0,0.495348 0.07621,0.838281 0.266727,1.0288 0.190517,0.190518 0.533451,0.266726 1.0288,0.266726 0.152415,0 0.266726,0 0.41914,0 0.152416,0 0.266727,0 0.419142,0 0.266726,0 0.495348,0.152414 0.495348,0.495348 v 0.609661 c 0,0.266725 -0.152415,0.41914 -0.41914,0.495348 -0.152416,0.07621 -0.342934,0.07621 -0.533453,0.07621 -0.266725,0 -0.495348,0 -0.685867,0 -0.914489,0 -1.600357,-0.266727 -2.057601,-0.762075 -0.495348,-0.495348 -0.762075,-1.257423 -0.762075,-2.133809 z"
       class="st1"
       inkscape:connector-curvature="0" />
    <path
       style="stroke-width:0.381037"
       id="path871"
       d="m 104.1511,52.709894 c 0.26672,-0.07621 0.49535,-0.152415 0.60966,-0.190519 0.15241,-0.07621 0.26672,-0.07621 0.34293,-0.07621 0.26673,0 0.41914,0.152416 0.41914,0.419141 v 0.495348 c 0,0.342934 -0.15241,0.533453 -0.34293,0.685868 -1.60036,0.685867 -3.23882,0.952594 -5.0297,0.952594 -2.552941,0 -4.496239,-0.762075 -5.791765,-2.210017 -1.295526,-1.447941 -1.981393,-3.58175 -1.981393,-6.401427 0,-1.371734 0.190517,-2.629157 0.533451,-3.734164 0.342934,-1.105009 0.914489,-2.057602 1.52415,-2.819677 0.685867,-0.762075 1.524149,-1.371734 2.476743,-1.790875 0.952593,-0.41914 2.057603,-0.609661 3.238814,-0.609661 1.9433,0 3.39124,0.419143 4.42004,1.295528 1.0288,0.914489 1.60035,2.133809 1.60035,3.734166 0,1.600356 -0.53345,2.705365 -1.63846,3.429335 -1.105,0.762075 -2.81967,1.105009 -5.182101,1.105009 -0.83828,0 -1.63846,-0.07621 -2.552953,-0.152416 -0.838284,-0.07621 -1.714671,-0.266726 -2.552952,-0.495348 0,2.362432 0.495348,4.153306 1.524149,5.258314 1.028803,1.105009 2.476746,1.714668 4.496247,1.714668 1.25742,-0.07621 2.55295,-0.190519 3.88658,-0.609659 z M 99.921579,39.030655 c -1.63846,0 -2.972093,0.495348 -3.924684,1.447943 -0.952593,0.952592 -1.524149,2.400534 -1.714668,4.267617 0.838283,0.190519 1.714668,0.419141 2.552949,0.495348 0.838283,0.152416 1.714673,0.152416 2.552953,0.152416 1.638461,0 2.895881,-0.266728 3.657961,-0.762075 0.76207,-0.495348 1.18121,-1.257424 1.18121,-2.362432 0,-2.133808 -1.44794,-3.238817 -4.305721,-3.238817 z"
       class="st1"
       inkscape:connector-curvature="0" />
    <path
       style="stroke-width:0.381037"
       id="path873"
       d="m 115.04876,47.184853 -4.76296,6.972982 c -0.19052,0.266727 -0.41914,0.342934 -0.68587,0.342934 h -0.91449 c -0.26673,0 -0.41914,-0.152415 -0.41914,-0.342934 0,-0.07621 0.0762,-0.190518 0.19052,-0.41914 l 5.63935,-7.849368 -5.18211,-7.163502 c -0.15241,-0.190518 -0.19052,-0.342933 -0.19052,-0.41914 0,-0.266727 0.15242,-0.342933 0.41915,-0.342933 h 1.0288 c 0.26672,0 0.53345,0.152414 0.68586,0.342933 l 4.34383,6.134699 4.26762,-6.210907 c 0.19051,-0.266725 0.41914,-0.342933 0.68586,-0.342933 h 0.91449 c 0.26673,0 0.41914,0.152414 0.41914,0.342933 0,0.07621 -0.0762,0.190519 -0.19052,0.419142 l -5.10589,7.049188 5.63935,8.001783 c 0.15241,0.190519 0.19052,0.342934 0.19052,0.419142 0,0.266725 -0.15242,0.342933 -0.41915,0.342933 h -1.0288 c -0.26672,0 -0.49534,-0.152414 -0.68586,-0.342933 z"
       class="st1"
       inkscape:connector-curvature="0" />
    <text
       id="text918"
       y="77.116623"
       x="20.550186"
       style="font-style:normal;font-weight:normal;font-size:8.46667px;line-height:1.25;font-family:sans-serif;fill:#000000;fill-opacity:1;stroke:none;stroke-width:0.264583"
       xml:space="preserve"><tspan
         style="font-style:normal;font-variant:normal;font-weight:normal;font-stretch:normal;font-family:'Helvetica Neue';-inkscape-font-specification:'Helvetica Neue';fill:#666666;stroke-width:0.264583"
         y="77.116623"
         x="20.550186"
         id="tspan916"
         sodipodi:role="line">Your personal assistant at work</tspan></text>
  </g>
  <style
     type="text/css"
     id="style851">
	.st0{fill:#00CAFF;}
	.st1{fill:#333E48;}
</style>
</svg>
