<?xml version="1.0" encoding="UTF-8" standalone="no"?>
<svg
   xmlns:dc="http://purl.org/dc/elements/1.1/"
   xmlns:cc="http://creativecommons.org/ns#"
   xmlns:rdf="http://www.w3.org/1999/02/22-rdf-syntax-ns#"
   xmlns:svg="http://www.w3.org/2000/svg"
   xmlns="http://www.w3.org/2000/svg"
   xmlns:sodipodi="http://sodipodi.sourceforge.net/DTD/sodipodi-0.dtd"
   xmlns:inkscape="http://www.inkscape.org/namespaces/inkscape"
   sodipodi:docname="splash.svg"
   inkscape:version="1.0beta2 (2b71d25, 2019-12-03)"
   inkscape:export-ydpi="96"
   inkscape:export-xdpi="96"
   inkscape:export-filename="/Users/gzomer/Documents/Development/Projects/aws-hackathons/assets/splash.png"
   id="svg867"
   version="1.1"
   viewBox="0 0 722.84165 722.84169"
   height="2732"
   width="2732">
  <defs
     id="defs861" />
  <sodipodi:namedview
     inkscape:window-maximized="0"
     inkscape:window-y="23"
     inkscape:window-x="0"
     inkscape:window-height="855"
     inkscape:window-width="1440"
     units="px"
     showgrid="false"
     inkscape:document-rotation="0"
     inkscape:current-layer="layer1"
     inkscape:document-units="mm"
     inkscape:cy="1362.987"
     inkscape:cx="1384.8052"
     inkscape:zoom="0.22"
     inkscape:pageshadow="2"
     inkscape:pageopacity="1"
     borderopacity="1.0"
     bordercolor="#666666"
     pagecolor="#ffffff"
     id="base" />
  <metadata
     id="metadata864">
    <rdf:RDF>
      <cc:Work
         rdf:about="">
        <dc:format>image/svg+xml</dc:format>
        <dc:type
           rdf:resource="http://purl.org/dc/dcmitype/StillImage" />
        <dc:title></dc:title>
      </cc:Work>
    </rdf:RDF>
  </metadata>
  <g
     id="layer1"
     inkscape:groupmode="layer"
     inkscape:label="Layer 1">
    <g
       transform="matrix(2.1351196,0,0,2.1351196,-423.89237,-335.95728)"
       id="g1455">
      <path
         style="fill:#00caff;stroke-width:0.381037"
         id="path853"
         d="m 334.40529,299.1449 c -8.76385,0 -15.85115,7.1635 -15.85115,15.85115 0,8.68765 7.0873,15.85114 15.85115,15.85114 8.76386,0 15.85115,-7.16349 15.85115,-15.85114 0,-8.68765 -7.08729,-15.85115 -15.85115,-15.85115 z m -2.47674,31.51178 v -3.0864 c 0,-1.10502 -0.68586,-2.13381 -1.71467,-2.55295 -3.84847,-1.63846 -6.63004,-5.52504 -6.63004,-9.98319 0,-5.94418 4.83917,-10.82145 10.82145,-10.82145 5.98229,0 10.82146,4.91538 10.82146,10.82145 0,7.0111 -5.44883,13.60304 -13.2982,15.62254 z"
         class="st0"
         inkscape:connector-curvature="0" />
      <path
         inkscape:connector-curvature="0"
         class="st1"
         d="m 364.0398,306.48925 c 3.81037,0 5.71556,1.63846 5.71556,4.91539 v 11.73594 c 0,0.34294 -0.15242,0.49535 -0.49535,0.49535 h -0.68587 c -0.34293,0 -0.49535,-0.15241 -0.53345,-0.49535 l -0.15242,-1.44794 c -1.86708,1.52415 -3.84847,2.28623 -5.94418,2.28623 -1.52415,0 -2.74347,-0.41915 -3.58175,-1.29553 -0.91449,-0.91449 -1.29552,-1.98139 -1.29552,-3.50554 0,-1.60036 0.53345,-2.89589 1.63846,-3.81038 1.105,-0.91449 2.62915,-1.37173 4.49623,-1.37173 0.68587,0 1.44795,0.0762 2.36244,0.19052 0.83828,0.15241 1.63846,0.34293 2.40053,0.53345 v -2.78157 c 0,-1.29553 -0.34293,-2.28623 -0.95259,-2.89589 -0.60966,-0.53345 -1.71467,-0.91449 -3.16261,-0.91449 -1.37174,0 -2.81968,0.19052 -4.34383,0.68587 -0.26672,0.0762 -0.41914,0.15242 -0.53345,0.19052 -0.15241,0.0762 -0.26672,0.0762 -0.34293,0.0762 -0.26673,0 -0.41914,-0.15241 -0.41914,-0.41914 v -0.53345 c 0,-0.34293 0.15241,-0.53345 0.41914,-0.68587 0.83828,-0.34293 1.71466,-0.53345 2.70536,-0.76207 0.83828,-0.11432 1.79088,-0.19052 2.70537,-0.19052 z m -0.49535,9.1068 c -3.0864,0 -4.61055,1.18121 -4.61055,3.58175 0,2.0576 1.10501,3.0864 3.23881,3.0864 0.83829,0 1.71467,-0.15242 2.70537,-0.49535 0.95259,-0.34293 1.94329,-0.83828 2.97209,-1.44794 v -4.15331 c -1.48605,-0.38104 -2.93399,-0.57155 -4.30572,-0.57155 z"
         id="path867"
         style="fill:#333e48;stroke-width:0.381037" />
      <path
         inkscape:connector-curvature="0"
         class="st1"
         d="m 374.09918,299.66869 c 0,-0.34294 0.15242,-0.49535 0.49535,-0.49535 h 0.91449 c 0.34293,0 0.49535,0.15241 0.49535,0.49535 v 21.10946 c 0,0.49535 0.0762,0.83828 0.26673,1.0288 0.19051,0.19052 0.53345,0.26673 1.0288,0.26673 0.15241,0 0.26672,0 0.41914,0 0.15241,0 0.26672,0 0.41914,0 0.26672,0 0.49535,0.15241 0.49535,0.49535 v 0.60966 c 0,0.26672 -0.15242,0.41914 -0.41914,0.49535 -0.15242,0.0762 -0.34294,0.0762 -0.53346,0.0762 -0.26672,0 -0.49535,0 -0.68587,0 -0.91448,0 -1.60035,-0.26673 -2.0576,-0.76208 -0.49534,-0.49535 -0.76207,-1.25742 -0.76207,-2.13381 z"
         id="path869"
         style="fill:#333e48;stroke-width:0.381037" />
      <path
         inkscape:connector-curvature="0"
         class="st1"
         d="m 392.38898,321.80695 c 0.26672,-0.0762 0.49535,-0.15241 0.60966,-0.19052 0.15241,-0.0762 0.26672,-0.0762 0.34293,-0.0762 0.26673,0 0.41914,0.15242 0.41914,0.41915 v 0.49534 c 0,0.34294 -0.15241,0.53346 -0.34293,0.68587 -1.60036,0.68587 -3.23882,0.9526 -5.0297,0.9526 -2.55294,0 -4.49624,-0.76208 -5.79177,-2.21002 -1.29552,-1.44794 -1.98139,-3.58175 -1.98139,-6.40143 0,-1.37173 0.19052,-2.62916 0.53345,-3.73416 0.34294,-1.10501 0.91449,-2.0576 1.52415,-2.81968 0.68587,-0.76207 1.52415,-1.37173 2.47674,-1.79087 0.9526,-0.41914 2.05761,-0.60967 3.23882,-0.60967 1.9433,0 3.39124,0.41915 4.42004,1.29553 1.0288,0.91449 1.60035,2.13381 1.60035,3.73417 0,1.60035 -0.53345,2.70536 -1.63846,3.42933 -1.105,0.76208 -2.81967,1.10501 -5.1821,1.10501 -0.83828,0 -1.63846,-0.0762 -2.55296,-0.15241 -0.83828,-0.0762 -1.71467,-0.26673 -2.55295,-0.49535 0,2.36243 0.49535,4.1533 1.52415,5.25831 1.0288,1.10501 2.47675,1.71467 4.49625,1.71467 1.25742,-0.0762 2.55295,-0.19052 3.88658,-0.60966 z m -4.22952,-13.67924 c -1.63846,0 -2.9721,0.49535 -3.92469,1.44795 -0.95259,0.95259 -1.52414,2.40053 -1.71467,4.26761 0.83829,0.19052 1.71467,0.41915 2.55295,0.49535 0.83829,0.15242 1.71468,0.15242 2.55296,0.15242 1.63846,0 2.89588,-0.26673 3.65796,-0.76208 0.76207,-0.49534 1.18121,-1.25742 1.18121,-2.36243 0,-2.13381 -1.44794,-3.23882 -4.30572,-3.23882 z"
         id="path871"
         style="fill:#333e48;stroke-width:0.381037" />
      <path
         inkscape:connector-curvature="0"
         class="st1"
         d="m 403.28664,316.28191 -4.76296,6.97298 c -0.19052,0.26673 -0.41914,0.34294 -0.68587,0.34294 h -0.91449 c -0.26673,0 -0.41914,-0.15242 -0.41914,-0.34294 0,-0.0762 0.0762,-0.19051 0.19052,-0.41914 l 5.63935,-7.84936 -5.18211,-7.16351 c -0.15241,-0.19051 -0.19052,-0.34293 -0.19052,-0.41914 0,-0.26672 0.15242,-0.34293 0.41915,-0.34293 h 1.0288 c 0.26672,0 0.53345,0.15242 0.68586,0.34293 l 4.34383,6.1347 4.26762,-6.2109 c 0.19051,-0.26673 0.41914,-0.34294 0.68586,-0.34294 h 0.91449 c 0.26673,0 0.41914,0.15242 0.41914,0.34294 0,0.0762 -0.0762,0.19052 -0.19052,0.41914 l -5.10589,7.04919 5.63935,8.00178 c 0.15241,0.19052 0.19052,0.34293 0.19052,0.41914 0,0.26673 -0.15242,0.34293 -0.41915,0.34293 h -1.0288 c -0.26672,0 -0.49534,-0.15241 -0.68586,-0.34293 z"
         id="path873"
         style="fill:#333e48;stroke-width:0.381037" />
      <text
         xml:space="preserve"
         style="font-style:normal;font-weight:normal;font-size:8.46667px;line-height:1.25;font-family:sans-serif;fill:#000000;fill-opacity:1;stroke:none;stroke-width:0.264583"
         x="308.78809"
         y="346.21365"
         id="text918"><tspan
           sodipodi:role="line"
           id="tspan916"
           x="308.78809"
           y="346.21365"
           style="font-style:normal;font-variant:normal;font-weight:normal;font-stretch:normal;font-family:'Helvetica Neue';-inkscape-font-specification:'Helvetica Neue';fill:#666666;stroke-width:0.264583">Your personal assistant at work</tspan></text>
    </g>
  </g>
</svg>
